<svg id="wave" style="transform:rotate(0deg); transition: 0.3s" viewBox="0 0 1440 490" version="1.1" xmlns="http://www.w3.org/2000/svg"><defs><linearGradient id="sw-gradient-0" x1="0" x2="0" y1="1" y2="0"><stop stop-color="rgba(62, 89.718, 243, 1)" offset="0%"></stop><stop stop-color="rgba(230.382, 67.066, 169.758, 1)" offset="100%"></stop></linearGradient></defs><path style="transform:translate(0, 0px); opacity:1" fill="url(#sw-gradient-0)" d="M0,392L26.7,375.7C53.3,359,107,327,160,318.5C213.3,310,267,327,320,334.8C373.3,343,427,343,480,351.2C533.3,359,587,376,640,351.2C693.3,327,747,261,800,196C853.3,131,907,65,960,57.2C1013.3,49,1067,98,1120,155.2C1173.3,212,1227,278,1280,269.5C1333.3,261,1387,180,1440,147C1493.3,114,1547,131,1600,147C1653.3,163,1707,180,1760,155.2C1813.3,131,1867,65,1920,32.7C1973.3,0,2027,0,2080,24.5C2133.3,49,2187,98,2240,138.8C2293.3,180,2347,212,2400,261.3C2453.3,310,2507,376,2560,408.3C2613.3,441,2667,441,2720,400.2C2773.3,359,2827,278,2880,212.3C2933.3,147,2987,98,3040,114.3C3093.3,131,3147,212,3200,261.3C3253.3,310,3307,327,3360,318.5C3413.3,310,3467,278,3520,285.8C3573.3,294,3627,343,3680,334.8C3733.3,327,3787,261,3813,228.7L3840,196L3840,490L3813.3,490C3786.7,490,3733,490,3680,490C3626.7,490,3573,490,3520,490C3466.7,490,3413,490,3360,490C3306.7,490,3253,490,3200,490C3146.7,490,3093,490,3040,490C2986.7,490,2933,490,2880,490C2826.7,490,2773,490,2720,490C2666.7,490,2613,490,2560,490C2506.7,490,2453,490,2400,490C2346.7,490,2293,490,2240,490C2186.7,490,2133,490,2080,490C2026.7,490,1973,490,1920,490C1866.7,490,1813,490,1760,490C1706.7,490,1653,490,1600,490C1546.7,490,1493,490,1440,490C1386.7,490,1333,490,1280,490C1226.7,490,1173,490,1120,490C1066.7,490,1013,490,960,490C906.7,490,853,490,800,490C746.7,490,693,490,640,490C586.7,490,533,490,480,490C426.7,490,373,490,320,490C266.7,490,213,490,160,490C106.7,490,53,490,27,490L0,490Z"></path></svg>